<mxfile host="Electron" modified="2024-02-01T13:06:34.057Z" agent="Mozilla/5.0 (Windows NT 10.0; Win64; x64) AppleWebKit/537.36 (KHTML, like Gecko) draw.io/23.0.2 Chrome/120.0.6099.109 Electron/28.1.0 Safari/537.36" etag="KFnKjCLWgAnnl09iKhu-" version="23.0.2" type="device">
  <diagram name="Страница — 1" id="TLnPnsaPc1FcU1qFOi9q">
    <mxGraphModel dx="1098" dy="820" grid="1" gridSize="10" guides="1" tooltips="1" connect="1" arrows="1" fold="1" page="1" pageScale="1" pageWidth="827" pageHeight="1169" math="0" shadow="0">
      <root>
        <mxCell id="0" />
        <mxCell id="1" parent="0" />
        <mxCell id="o4K1NYcA1T3umlR-PLgp-1" value="Пользователь" style="shape=umlActor;verticalLabelPosition=bottom;verticalAlign=top;html=1;" vertex="1" parent="1">
          <mxGeometry x="670" y="620" width="30" height="60" as="geometry" />
        </mxCell>
        <mxCell id="o4K1NYcA1T3umlR-PLgp-2" value="Авторизация" style="ellipse;whiteSpace=wrap;html=1;" vertex="1" parent="1">
          <mxGeometry x="414" y="210" width="140" height="70" as="geometry" />
        </mxCell>
        <mxCell id="o4K1NYcA1T3umlR-PLgp-4" value="Регистрация" style="ellipse;whiteSpace=wrap;html=1;" vertex="1" parent="1">
          <mxGeometry x="414" y="330" width="140" height="70" as="geometry" />
        </mxCell>
        <mxCell id="o4K1NYcA1T3umlR-PLgp-5" value="Создать логин" style="ellipse;whiteSpace=wrap;html=1;" vertex="1" parent="1">
          <mxGeometry x="190" y="290" width="140" height="70" as="geometry" />
        </mxCell>
        <mxCell id="o4K1NYcA1T3umlR-PLgp-6" value="Создать пароль" style="ellipse;whiteSpace=wrap;html=1;" vertex="1" parent="1">
          <mxGeometry x="190" y="365" width="140" height="70" as="geometry" />
        </mxCell>
        <mxCell id="o4K1NYcA1T3umlR-PLgp-7" value="Редактировать&lt;br&gt;профиль" style="ellipse;whiteSpace=wrap;html=1;" vertex="1" parent="1">
          <mxGeometry x="414" y="515" width="140" height="70" as="geometry" />
        </mxCell>
        <mxCell id="o4K1NYcA1T3umlR-PLgp-8" value="Изменить логин" style="ellipse;whiteSpace=wrap;html=1;" vertex="1" parent="1">
          <mxGeometry x="190" y="465" width="140" height="70" as="geometry" />
        </mxCell>
        <mxCell id="o4K1NYcA1T3umlR-PLgp-9" value="Изменить пароль" style="ellipse;whiteSpace=wrap;html=1;" vertex="1" parent="1">
          <mxGeometry x="190" y="545" width="140" height="70" as="geometry" />
        </mxCell>
        <mxCell id="o4K1NYcA1T3umlR-PLgp-10" value="Просмотреть историю&lt;br&gt;событий" style="ellipse;whiteSpace=wrap;html=1;" vertex="1" parent="1">
          <mxGeometry x="420" y="760" width="140" height="70" as="geometry" />
        </mxCell>
        <mxCell id="o4K1NYcA1T3umlR-PLgp-11" value="Просмотреть список&amp;nbsp;&lt;br&gt;напитков" style="ellipse;whiteSpace=wrap;html=1;" vertex="1" parent="1">
          <mxGeometry x="420" y="670" width="140" height="70" as="geometry" />
        </mxCell>
        <mxCell id="o4K1NYcA1T3umlR-PLgp-12" value="Создать&lt;br&gt;напиток" style="ellipse;whiteSpace=wrap;html=1;" vertex="1" parent="1">
          <mxGeometry x="190" y="635" width="140" height="70" as="geometry" />
        </mxCell>
        <mxCell id="o4K1NYcA1T3umlR-PLgp-13" value="Удалить&lt;br&gt;напиток" style="ellipse;whiteSpace=wrap;html=1;" vertex="1" parent="1">
          <mxGeometry x="190" y="715" width="140" height="70" as="geometry" />
        </mxCell>
        <mxCell id="o4K1NYcA1T3umlR-PLgp-14" value="Создать событие" style="ellipse;whiteSpace=wrap;html=1;" vertex="1" parent="1">
          <mxGeometry x="414" y="850" width="140" height="70" as="geometry" />
        </mxCell>
        <mxCell id="o4K1NYcA1T3umlR-PLgp-15" value="Указать место" style="ellipse;whiteSpace=wrap;html=1;" vertex="1" parent="1">
          <mxGeometry x="200" y="830" width="140" height="70" as="geometry" />
        </mxCell>
        <mxCell id="o4K1NYcA1T3umlR-PLgp-16" value="Указать напиток" style="ellipse;whiteSpace=wrap;html=1;" vertex="1" parent="1">
          <mxGeometry x="200" y="940" width="140" height="70" as="geometry" />
        </mxCell>
        <mxCell id="o4K1NYcA1T3umlR-PLgp-17" value="Указать стоимость" style="ellipse;whiteSpace=wrap;html=1;" vertex="1" parent="1">
          <mxGeometry x="350" y="970" width="140" height="70" as="geometry" />
        </mxCell>
        <mxCell id="o4K1NYcA1T3umlR-PLgp-18" value="Указать количество&lt;br&gt;выпитого" style="ellipse;whiteSpace=wrap;html=1;" vertex="1" parent="1">
          <mxGeometry x="500" y="970" width="140" height="70" as="geometry" />
        </mxCell>
        <mxCell id="o4K1NYcA1T3umlR-PLgp-19" value="" style="endArrow=none;html=1;rounded=0;entryX=0.5;entryY=0.5;entryDx=0;entryDy=0;entryPerimeter=0;exitX=1;exitY=0.5;exitDx=0;exitDy=0;" edge="1" parent="1" source="o4K1NYcA1T3umlR-PLgp-2" target="o4K1NYcA1T3umlR-PLgp-1">
          <mxGeometry width="50" height="50" relative="1" as="geometry">
            <mxPoint x="540" y="660" as="sourcePoint" />
            <mxPoint x="590" y="610" as="targetPoint" />
          </mxGeometry>
        </mxCell>
        <mxCell id="o4K1NYcA1T3umlR-PLgp-21" value="" style="endArrow=none;html=1;rounded=0;exitX=0.5;exitY=0.5;exitDx=0;exitDy=0;exitPerimeter=0;entryX=1;entryY=0.5;entryDx=0;entryDy=0;" edge="1" parent="1" source="o4K1NYcA1T3umlR-PLgp-1" target="o4K1NYcA1T3umlR-PLgp-4">
          <mxGeometry width="50" height="50" relative="1" as="geometry">
            <mxPoint x="580" y="640" as="sourcePoint" />
            <mxPoint x="630" y="590" as="targetPoint" />
          </mxGeometry>
        </mxCell>
        <mxCell id="o4K1NYcA1T3umlR-PLgp-22" value="" style="endArrow=none;html=1;rounded=0;entryX=0.5;entryY=0.5;entryDx=0;entryDy=0;entryPerimeter=0;exitX=1;exitY=0.5;exitDx=0;exitDy=0;" edge="1" parent="1" source="o4K1NYcA1T3umlR-PLgp-7" target="o4K1NYcA1T3umlR-PLgp-1">
          <mxGeometry width="50" height="50" relative="1" as="geometry">
            <mxPoint x="570" y="660" as="sourcePoint" />
            <mxPoint x="620" y="610" as="targetPoint" />
          </mxGeometry>
        </mxCell>
        <mxCell id="o4K1NYcA1T3umlR-PLgp-23" value="" style="endArrow=none;html=1;rounded=0;entryX=0.5;entryY=0.5;entryDx=0;entryDy=0;entryPerimeter=0;exitX=1;exitY=0.5;exitDx=0;exitDy=0;" edge="1" parent="1" source="o4K1NYcA1T3umlR-PLgp-11" target="o4K1NYcA1T3umlR-PLgp-1">
          <mxGeometry width="50" height="50" relative="1" as="geometry">
            <mxPoint x="620" y="700" as="sourcePoint" />
            <mxPoint x="670" y="650" as="targetPoint" />
          </mxGeometry>
        </mxCell>
        <mxCell id="o4K1NYcA1T3umlR-PLgp-24" value="" style="endArrow=none;html=1;rounded=0;entryX=0.5;entryY=0.5;entryDx=0;entryDy=0;entryPerimeter=0;exitX=1;exitY=0.5;exitDx=0;exitDy=0;" edge="1" parent="1" source="o4K1NYcA1T3umlR-PLgp-10" target="o4K1NYcA1T3umlR-PLgp-1">
          <mxGeometry width="50" height="50" relative="1" as="geometry">
            <mxPoint x="610" y="800" as="sourcePoint" />
            <mxPoint x="660" y="750" as="targetPoint" />
          </mxGeometry>
        </mxCell>
        <mxCell id="o4K1NYcA1T3umlR-PLgp-25" value="" style="endArrow=none;html=1;rounded=0;entryX=0.5;entryY=0.5;entryDx=0;entryDy=0;entryPerimeter=0;exitX=1;exitY=0;exitDx=0;exitDy=0;" edge="1" parent="1" source="o4K1NYcA1T3umlR-PLgp-14" target="o4K1NYcA1T3umlR-PLgp-1">
          <mxGeometry width="50" height="50" relative="1" as="geometry">
            <mxPoint x="640" y="870" as="sourcePoint" />
            <mxPoint x="690" y="820" as="targetPoint" />
          </mxGeometry>
        </mxCell>
        <mxCell id="o4K1NYcA1T3umlR-PLgp-27" value="include" style="endArrow=none;html=1;rounded=0;entryX=0;entryY=0;entryDx=0;entryDy=0;exitX=1;exitY=0.5;exitDx=0;exitDy=0;dashed=1;endFill=0;startArrow=classic;startFill=1;" edge="1" parent="1" source="o4K1NYcA1T3umlR-PLgp-5" target="o4K1NYcA1T3umlR-PLgp-4">
          <mxGeometry width="50" height="50" relative="1" as="geometry">
            <mxPoint x="340" y="370" as="sourcePoint" />
            <mxPoint x="390" y="320" as="targetPoint" />
          </mxGeometry>
        </mxCell>
        <mxCell id="o4K1NYcA1T3umlR-PLgp-28" value="include" style="endArrow=none;html=1;rounded=0;entryX=0;entryY=1;entryDx=0;entryDy=0;exitX=1;exitY=0.5;exitDx=0;exitDy=0;dashed=1;endFill=0;startArrow=classic;startFill=1;" edge="1" parent="1" source="o4K1NYcA1T3umlR-PLgp-6" target="o4K1NYcA1T3umlR-PLgp-4">
          <mxGeometry width="50" height="50" relative="1" as="geometry">
            <mxPoint x="340" y="335" as="sourcePoint" />
            <mxPoint x="424" y="375" as="targetPoint" />
          </mxGeometry>
        </mxCell>
        <mxCell id="o4K1NYcA1T3umlR-PLgp-29" value="include" style="endArrow=none;html=1;rounded=0;entryX=0;entryY=0;entryDx=0;entryDy=0;exitX=1;exitY=0.5;exitDx=0;exitDy=0;dashed=1;endFill=0;startArrow=classic;startFill=1;" edge="1" parent="1" source="o4K1NYcA1T3umlR-PLgp-8" target="o4K1NYcA1T3umlR-PLgp-7">
          <mxGeometry width="50" height="50" relative="1" as="geometry">
            <mxPoint x="340" y="410" as="sourcePoint" />
            <mxPoint x="445" y="400" as="targetPoint" />
          </mxGeometry>
        </mxCell>
        <mxCell id="o4K1NYcA1T3umlR-PLgp-30" value="include" style="endArrow=none;html=1;rounded=0;entryX=0;entryY=1;entryDx=0;entryDy=0;exitX=1;exitY=0.5;exitDx=0;exitDy=0;dashed=1;endFill=0;startArrow=classic;startFill=1;" edge="1" parent="1" source="o4K1NYcA1T3umlR-PLgp-9" target="o4K1NYcA1T3umlR-PLgp-7">
          <mxGeometry width="50" height="50" relative="1" as="geometry">
            <mxPoint x="340" y="410" as="sourcePoint" />
            <mxPoint x="445" y="400" as="targetPoint" />
          </mxGeometry>
        </mxCell>
        <mxCell id="o4K1NYcA1T3umlR-PLgp-32" value="extend" style="endArrow=classic;html=1;rounded=0;dashed=1;endFill=1;exitX=1;exitY=0.5;exitDx=0;exitDy=0;entryX=0;entryY=0;entryDx=0;entryDy=0;" edge="1" parent="1" source="o4K1NYcA1T3umlR-PLgp-12" target="o4K1NYcA1T3umlR-PLgp-11">
          <mxGeometry width="50" height="50" relative="1" as="geometry">
            <mxPoint x="360" y="650" as="sourcePoint" />
            <mxPoint x="440" y="630" as="targetPoint" />
          </mxGeometry>
        </mxCell>
        <mxCell id="o4K1NYcA1T3umlR-PLgp-33" value="extend" style="endArrow=classic;html=1;rounded=0;dashed=1;endFill=1;exitX=1;exitY=0.5;exitDx=0;exitDy=0;entryX=0;entryY=1;entryDx=0;entryDy=0;" edge="1" parent="1" source="o4K1NYcA1T3umlR-PLgp-13" target="o4K1NYcA1T3umlR-PLgp-11">
          <mxGeometry width="50" height="50" relative="1" as="geometry">
            <mxPoint x="340" y="680" as="sourcePoint" />
            <mxPoint x="430" y="715" as="targetPoint" />
          </mxGeometry>
        </mxCell>
        <mxCell id="o4K1NYcA1T3umlR-PLgp-35" value="include" style="endArrow=none;html=1;rounded=0;entryX=0;entryY=0.5;entryDx=0;entryDy=0;exitX=1;exitY=0.5;exitDx=0;exitDy=0;dashed=1;endFill=0;startArrow=classic;startFill=1;" edge="1" parent="1" source="o4K1NYcA1T3umlR-PLgp-15" target="o4K1NYcA1T3umlR-PLgp-14">
          <mxGeometry width="50" height="50" relative="1" as="geometry">
            <mxPoint x="340" y="590" as="sourcePoint" />
            <mxPoint x="445" y="585" as="targetPoint" />
          </mxGeometry>
        </mxCell>
        <mxCell id="o4K1NYcA1T3umlR-PLgp-36" value="include" style="endArrow=none;html=1;rounded=0;entryX=0;entryY=1;entryDx=0;entryDy=0;exitX=1;exitY=0;exitDx=0;exitDy=0;dashed=1;endFill=0;startArrow=classic;startFill=1;" edge="1" parent="1" source="o4K1NYcA1T3umlR-PLgp-16" target="o4K1NYcA1T3umlR-PLgp-14">
          <mxGeometry width="50" height="50" relative="1" as="geometry">
            <mxPoint x="350" y="875" as="sourcePoint" />
            <mxPoint x="424" y="895" as="targetPoint" />
          </mxGeometry>
        </mxCell>
        <mxCell id="o4K1NYcA1T3umlR-PLgp-37" value="include" style="endArrow=none;html=1;rounded=0;entryX=0.5;entryY=1;entryDx=0;entryDy=0;exitX=0.5;exitY=0;exitDx=0;exitDy=0;dashed=1;endFill=0;startArrow=classic;startFill=1;" edge="1" parent="1" source="o4K1NYcA1T3umlR-PLgp-17" target="o4K1NYcA1T3umlR-PLgp-14">
          <mxGeometry width="50" height="50" relative="1" as="geometry">
            <mxPoint x="329" y="960" as="sourcePoint" />
            <mxPoint x="445" y="920" as="targetPoint" />
          </mxGeometry>
        </mxCell>
        <mxCell id="o4K1NYcA1T3umlR-PLgp-38" value="include" style="endArrow=none;html=1;rounded=0;entryX=1;entryY=1;entryDx=0;entryDy=0;exitX=0.5;exitY=0;exitDx=0;exitDy=0;dashed=1;endFill=0;startArrow=classic;startFill=1;" edge="1" parent="1" source="o4K1NYcA1T3umlR-PLgp-18" target="o4K1NYcA1T3umlR-PLgp-14">
          <mxGeometry width="50" height="50" relative="1" as="geometry">
            <mxPoint x="440" y="980" as="sourcePoint" />
            <mxPoint x="494" y="930" as="targetPoint" />
          </mxGeometry>
        </mxCell>
        <mxCell id="o4K1NYcA1T3umlR-PLgp-39" value="Указать дату" style="ellipse;whiteSpace=wrap;html=1;" vertex="1" parent="1">
          <mxGeometry x="590" y="880" width="140" height="70" as="geometry" />
        </mxCell>
        <mxCell id="o4K1NYcA1T3umlR-PLgp-40" value="include" style="endArrow=none;html=1;rounded=0;entryX=1;entryY=0.5;entryDx=0;entryDy=0;exitX=0;exitY=0.5;exitDx=0;exitDy=0;dashed=1;endFill=0;startArrow=classic;startFill=1;" edge="1" parent="1" source="o4K1NYcA1T3umlR-PLgp-39" target="o4K1NYcA1T3umlR-PLgp-14">
          <mxGeometry width="50" height="50" relative="1" as="geometry">
            <mxPoint x="580" y="980" as="sourcePoint" />
            <mxPoint x="543" y="920" as="targetPoint" />
          </mxGeometry>
        </mxCell>
      </root>
    </mxGraphModel>
  </diagram>
</mxfile>
